<svg width="8" height="9" viewBox="0 0 8 9" fill="none" xmlns="http://www.w3.org/2000/svg">
<path d="M1.14269 5.31927C1.25103 5.21093 1.38193 5.15893 1.5354 5.16327C1.68887 5.16796 1.81978 5.22448 1.92811 5.33281L3.45832 6.86302L3.45832 0.823435C3.45832 0.669963 3.51032 0.541227 3.61432 0.437227C3.71796 0.333588 3.84651 0.281769 3.99998 0.281769C4.15346 0.281769 4.28219 0.333588 4.38619 0.437227C4.48983 0.541227 4.54165 0.669963 4.54165 0.823435L4.54165 6.86302L6.0854 5.31927C6.19373 5.21094 6.32247 5.15677 6.47161 5.15677C6.62039 5.15677 6.74894 5.21094 6.85728 5.31927C6.96561 5.4276 7.01978 5.55634 7.01978 5.70548C7.01978 5.85425 6.96561 5.98281 6.85728 6.09114L4.37915 8.56927C4.32498 8.62343 4.2663 8.66189 4.20311 8.68464C4.13991 8.70703 4.07221 8.71823 3.99998 8.71823C3.92776 8.71823 3.86005 8.70703 3.79686 8.68464C3.73366 8.66189 3.67498 8.62343 3.62082 8.56927L1.12915 6.0776C1.02984 5.9783 0.980191 5.85425 0.980191 5.70548C0.980191 5.55634 1.03436 5.4276 1.14269 5.31927Z" fill="white"/>
</svg>
